<?xml version="1.0" encoding="UTF-8" standalone="no"?>
<svg width="100px" height="100px" viewBox="0 0 100 100" version="1.1" xmlns="http://www.w3.org/2000/svg" xmlns:xlink="http://www.w3.org/1999/xlink">
    <!-- Generator: Sketch 42 (36781) - http://www.bohemiancoding.com/sketch -->
    <title>Group 91</title>
    <desc>Created with Sketch.</desc>
    <defs>
        <polygon id="path-1" points="26.3859658 53.1146514 52.7717368 53.1146514 52.7717368 0.455360975 26.3859658 0.455360975 0.000194736842 0.455360975 0.000194736842 53.1146514 26.3859658 53.1146514"></polygon>
    </defs>
    <g id="Page-1" stroke="none" stroke-width="1" fill="none" fill-rule="evenodd">
        <g id="CT-HP-v1-Copy-5" transform="translate(-1029.000000, -491.000000)">
            <g id="Group-36" transform="translate(123.000000, 491.000000)">
                <g id="Group-12">
                    <g id="Group-43">
                        <g id="Group-91" transform="translate(906.000000, 0.000000)">
                            <g id="Group-41" fill="#F5F5F5">
                                <ellipse id="Oval-Copy-2" cx="50" cy="50" rx="50" ry="50"></ellipse>
                            </g>
                            <g id="The-moment-you-need-help" transform="translate(12.000000, 10.000000)">
                                <path d="M59.8314018,17.1881495 C54.2467897,11.6154372 46.5323674,8.16925381 38.0118666,8.16925381 C20.9696056,8.16925381 7.15417719,21.9552442 7.15417719,38.9611914 C7.15417719,47.4647935 10.6077194,55.1627779 16.1923314,60.7342334 L59.8314018,17.1881495 Z" id="Fill-4" fill="#FFF5C6"></path>
                                <g id="Page-1" transform="translate(37.289587, 35.637131) rotate(-24.000000) translate(-37.289587, -35.637131) translate(7.789587, 10.637131)">
                                    <path d="M29.0712604,10.1901672 C30.0821189,10.1901672 30.9098728,9.36864595 30.9098728,8.36539884 L30.9098728,1.82326646 C30.9098728,0.815513747 30.0821189,-4.156675e-13 29.0712604,-4.156675e-13 C28.0543489,-4.156675e-13 27.2326481,0.815513747 27.2326481,1.82326646 L27.2326481,8.36539884 C27.2326481,9.36864595 28.0543489,10.1901672 29.0712604,10.1901672" id="Fill-1" fill="#EB7C13"></path>
                                    <path d="M13.175965,15.6569628 C13.5194753,15.9978866 13.9795067,16.18562 14.4698034,16.18562 C14.9676663,16.18562 15.4276977,15.9978866 15.771208,15.6509553 C16.4915203,14.9420742 16.4915203,13.7856366 15.771208,13.0767554 L11.1133901,8.44800152 C10.7638267,8.10707773 10.3037953,7.91333689 9.81198546,7.91333689 C9.32168884,7.91333689 8.86014418,8.10707773 8.51209411,8.45400899 C8.16404404,8.79343092 7.97488639,9.25150033 7.97488639,9.73810522 C7.97488639,10.2247101 8.16404404,10.6827795 8.51209411,11.0282089 L13.175965,15.6569628 Z" id="Fill-3" fill="#EB7C13"></path>
                                    <path d="M44.9605028,42.0462668 C44.6169925,41.6993355 44.1569611,41.5116021 43.6651512,41.5116021 C43.1748546,41.5116021 42.7148232,41.6993355 42.3652599,42.0462668 C42.0172098,42.3916962 41.8280521,42.8497656 41.8280521,43.3363705 C41.8280521,43.8169679 42.0172098,44.2810448 42.3652599,44.6219686 L47.0291308,49.2507225 C47.3726411,49.5961519 47.8326725,49.7838852 48.3244824,49.7838852 C48.814779,49.7838852 49.2748104,49.5961519 49.6243737,49.2507225 C50.3401462,48.5343319 50.3401462,47.3778944 49.6243737,46.6690132 L44.9605028,42.0462668 Z" id="Fill-5" fill="#FFBD00"></path>
                                    <path d="M10.261424,28.8523657 C10.261424,27.8431111 9.43972321,27.0275974 8.42886474,27.0275974 L1.83861233,27.0275974 C0.821700818,27.0275974 -1.7408297e-13,27.8431111 -1.7408297e-13,28.8523657 C-1.7408297e-13,29.8556128 0.821700818,30.6756322 1.83861233,30.6756322 L8.42886474,30.6756322 C9.43972321,30.6756322 10.261424,29.8556128 10.261424,28.8523657" id="Fill-7" fill="#EB7C13"></path>
                                    <path d="M56.2978555,27.0275974 L49.7076031,27.0275974 C48.6967446,27.0275974 47.8689907,27.8431111 47.8689907,28.8523657 C47.8689907,29.8556128 48.6967446,30.6756322 49.7076031,30.6756322 L56.2978555,30.6756322 C57.314767,30.6756322 58.1364678,29.8556128 58.1364678,28.8523657 C58.1364678,27.8431111 57.314767,27.0275974 56.2978555,27.0275974" id="Fill-9" fill="#FFBD00"></path>
                                    <path d="M14.4698034,41.5116021 C13.9795067,41.5116021 13.5194753,41.6993355 13.169912,42.0462668 L8.51209411,46.6690132 C7.79632157,47.3839019 7.79632157,48.5403394 8.51209411,49.2507225 C8.86014418,49.5961519 9.32168884,49.7838852 9.81198546,49.7838852 C10.3037953,49.7838852 10.7638267,49.5961519 11.1133901,49.2507225 L15.771208,44.6219686 C16.119258,44.2810448 16.3084157,43.8169679 16.3084157,43.3363705 C16.3084157,42.8497656 16.119258,42.3916962 15.771208,42.0462668 C15.4276977,41.6993355 14.9676663,41.5116021 14.4698034,41.5116021" id="Fill-11" fill="#FFBD00"></path>
                                    <path d="M43.6651512,16.18562 C44.1569611,16.18562 44.6169925,15.9978866 44.9665558,15.6569628 L49.6243737,11.0282089 C49.9724238,10.6827795 50.1615814,10.2247101 50.1615814,9.73810522 C50.1615814,9.2575078 49.9724238,8.79343092 49.6243737,8.44800152 C49.2748104,8.10707773 48.814779,7.91934436 48.3244824,7.91934436 C47.8326725,7.91934436 47.3726411,8.10707773 47.0230777,8.45400899 L42.3652599,13.0767554 C42.0172098,13.4221848 41.8280521,13.8802542 41.8280521,14.3608517 C41.8280521,14.853464 42.0172098,15.3115334 42.3652599,15.6569628 C42.7148232,16.0038941 43.1688015,16.18562 43.6651512,16.18562" id="Fill-13" fill="#EB7100"></path>
                                </g>
                                <g id="Page-1" transform="translate(16.228070, 16.589869)">
                                    <g id="Group-3" transform="translate(0.000000, 0.192314)">
                                        <mask id="mask-2" fill="white">
                                            <use xlink:href="#path-1"></use>
                                        </mask>
                                        <g id="Clip-2"></g>
                                        <path d="M52.7719316,22.267346 C52.7719316,13.7495696 49.3114579,6.03758129 43.7173175,0.455360975 L0.000194736842,44.0799788 C5.59433509,49.6621991 13.3221421,53.1146514 21.8587561,53.1146514 C38.9313351,53.1146514 52.7719316,39.3041943 52.7719316,22.267346 Z" id="Fill-1" fill="#85ACDD" mask="url(#mask-2)"></path>
                                    </g>
                                    <path d="M33.5084333,10.8351298 C30.6302228,7.96305218 26.6543456,6.18695005 22.2630298,6.18695005 C13.4797491,6.18695005 6.35952105,13.2920063 6.35952105,22.0565715 C6.35952105,26.439178 8.13941579,30.4065834 11.0176263,33.2780132 L33.5084333,10.8351298 Z" id="Fill-4" fill="#EB7C13"></path>
                                    <path d="M24.8360141,38.8787589 C29.7393102,38.8787589 34.2172025,37.0702732 37.6451283,34.0908427 C30.3073118,33.8197686 24.0091056,29.5064308 20.9117839,23.3186275 L11.0350877,33.1742783 C14.5665762,36.6990368 19.4459732,38.8787589 24.8360141,38.8787589" id="Fill-6" fill="#EEF5FF"></path>
                                </g>
                                <polygon id="Page-1" fill="#DEFCE3" points="41.9086667 58.0451811 41.4880351 60.5823773 38.9473684 61.0001694 41.4880351 61.4192569 41.9086667 63.9538622 42.3247544 61.4192569 44.8686667 61.0001694 42.3247544 60.5823773"></polygon>
                                <polygon id="Page-1" fill="#DEFCE3" points="58.9280175 30.1922724 58.1231053 35.0762294 53.2280702 35.8794266 58.1231053 36.6761463 58.9280175 41.5646375 59.7303333 36.6761463 64.6234211 35.8794266 59.7303333 35.0762294"></polygon>
                            </g>
                        </g>
                    </g>
                </g>
            </g>
        </g>
    </g>
</svg>