<?xml version="1.0" encoding="utf-8"?>
<!-- Generator: Adobe Illustrator 18.1.1, SVG Export Plug-In . SVG Version: 6.00 Build 0)  -->
<!DOCTYPE svg PUBLIC "-//W3C//DTD SVG 1.1//EN" "http://www.w3.org/Graphics/SVG/1.1/DTD/svg11.dtd">
<svg version="1.1" id="Layer_1" xmlns:sketch="http://www.bohemiancoding.com/sketch/ns"
	 xmlns="http://www.w3.org/2000/svg" xmlns:xlink="http://www.w3.org/1999/xlink" x="0px" y="0px" viewBox="-289 301 32 160"
	 enable-background="new -289 301 32 160" xml:space="preserve">
<g id="Shape_169_17_">
	<g>
		<path fill="#8F98A9" d="M-283.6,346.3l10.6,10.1l10.8-10.3c0.7-0.7,0.7-1.9,0-2.6c-0.7-0.7-1.9-0.7-2.7,0l-8.1,7.7l-7.9-7.5
			c-0.7-0.7-1.9-0.7-2.7,0C-284.4,344.5-284.4,345.6-283.6,346.3z"/>
	</g>
</g>
<g id="Shape_169_2_">
	<g>
		<path d="M-283.6,378.3l10.6,10.1l10.8-10.3c0.7-0.7,0.7-1.9,0-2.6c-0.7-0.7-1.9-0.7-2.7,0l-8.1,7.7l-7.9-7.5
			c-0.7-0.7-1.9-0.7-2.7,0C-284.4,376.5-284.4,377.6-283.6,378.3z"/>
	</g>
</g>
<g id="Shape_169_4_">
	<g>
		<path fill="#009BE7" d="M-283.6,410.3l10.6,10.1l10.8-10.3c0.7-0.7,0.7-1.9,0-2.6c-0.7-0.7-1.9-0.7-2.7,0l-8.1,7.7l-7.9-7.5
			c-0.7-0.7-1.9-0.7-2.7,0C-284.4,408.5-284.4,409.6-283.6,410.3z"/>
	</g>
</g>
<g id="Shape_169_6_">
	<g>
		<path fill="#FFFFFF" d="M-283.6,442.4l10.6,10l10.8-10.2c0.7-0.7,0.7-1.9,0-2.6c-0.7-0.7-1.9-0.7-2.7,0l-8.1,7.7l-7.9-7.5
			c-0.7-0.7-1.9-0.7-2.7,0C-284.4,440.6-284.4,441.7-283.6,442.4z"/>
	</g>
</g>
<g id="Shape_169_1_">
	<g>
		<path fill="#FF6600" d="M-283.7,314.3l10.6,10.1l10.8-10.3c0.7-0.7,0.7-1.9,0-2.6c-0.7-0.7-1.9-0.7-2.7,0l-8.1,7.7l-7.9-7.5
			c-0.7-0.7-1.9-0.7-2.7,0C-284.5,312.5-284.5,313.6-283.7,314.3z"/>
	</g>
</g>
</svg>
