<?xml version="1.0" encoding="UTF-8"?>
<svg width="236px" height="143px" viewBox="0 0 236 143" version="1.1" xmlns="http://www.w3.org/2000/svg" xmlns:xlink="http://www.w3.org/1999/xlink">
    <!-- Generator: Sketch 40.1 (33804) - http://www.bohemiancoding.com/sketch -->
    <title>footer-left</title>
    <desc>Created with Sketch.</desc>
    <defs></defs>
    <g id="Page-1" stroke="none" stroke-width="1" fill="none" fill-rule="evenodd">
        <g id="footer-left">
            <g id="Group-12" transform="translate(-1.000000, -1.000000)">
                <g id="Group-12-Copy-2" opacity="0.3" transform="translate(142.171991, 109.232338) rotate(171.000000) translate(-142.171991, -109.232338) translate(109.171991, 78.732338)" fill="#979797">
                    <g id="Group-11" transform="translate(0.000000, -0.000000)">
                        <path d="M62.6130585,2.53727423 C62.7582106,2.51045599 62.7734777,2.50709944 62.8032898,2.50227456 C62.9263517,2.48235785 63.0580051,2.48101953 63.1513448,2.50350255 C63.2494402,2.52713107 63.2582075,2.53768041 63.2660578,2.81865148 C63.4907337,10.8599811 63.2172652,17.1174519 62.4229378,27.0467841 C61.67297,36.4216086 61.5432622,38.3729926 61.5078899,42.4309719 C61.5055409,42.7004609 61.504359,42.9681627 61.504359,43.2342892 C61.504359,43.5958919 61.5062268,43.764368 61.5194975,44.769222 C61.5474906,46.8888397 61.5404936,48.1438295 61.4657941,49.5459934 C61.2453769,53.6833832 60.425128,56.1510628 59.1171694,56.4484089 C48.1364732,58.9447172 16.8632548,58.5224739 2.77330795,56.4343325 C2.13244533,56.3393562 2.19823969,56.4422429 2.27166543,56.2666038 C2.34546696,56.0900657 2.49403693,55.8661246 2.69461496,55.6272946 C2.91558647,55.3641819 3.140631,55.1464384 3.27699089,55.0297169 C19.7097511,37.4983421 57.061766,3.14429355 62.6130585,2.53727423 Z M1.1630815,54.3410577 C0.843579518,54.7214915 0.590212228,55.1033948 0.426418378,55.4952003 C-0.172093616,56.9268798 0.599887245,58.134074 2.48010871,58.4127243 C16.7937044,60.5340106 48.2965595,60.9593545 59.5605291,58.3986479 C62.1642214,57.8067348 63.1935119,54.7101635 63.4629619,49.6523914 C63.540685,48.1934729 63.5478716,46.9044823 63.5193231,44.742811 C63.5062126,43.7500908 63.504359,43.5828907 63.504359,43.2342892 C63.504359,42.9740119 63.5055152,42.7121201 63.507814,42.4484046 C63.5425952,38.4582299 63.6711352,36.5244145 64.4165687,27.2062707 C65.2161446,17.2113311 65.4923728,10.8907114 65.2652776,2.762793 C65.2319129,1.56864105 64.5864456,0.791977892 63.6196957,0.559113849 C63.2303363,0.465327633 62.8466842,0.469227647 62.4837616,0.527964117 C62.3834465,0.544199406 62.3029226,0.561903036 62.2456173,0.577253012 C58.7585865,0.94682934 48.0801484,9.55190458 32.399125,23.9743297 C20.9050744,34.545839 7.20274224,47.9229518 1.89693875,53.5863313 C1.76385561,53.6922881 1.46550507,53.9809593 1.1630815,54.3410577 Z" id="Path-4"></path>
                    </g>
                    <path d="M47.280191,30.9943878 L47.4302332,30.9662597 C47.3949501,30.9751783 47.3949501,30.9751783 47.3679305,30.9800684 C47.3120362,30.9891145 47.2539364,30.9897051 47.1695297,30.9693738 C46.8755124,30.8985529 46.6433681,30.6192235 46.6360416,30.3570036 C46.6943598,32.4442604 46.6233086,34.070046 46.4159112,36.6625765 C46.2166015,39.1540077 46.1819894,39.6747277 46.1724501,40.7691001 C46.1716543,40.8780739 46.1716543,40.8780739 46.1714916,40.9872186 C46.1714916,41.0872998 46.171989,41.1321683 46.1755453,41.4014469 C46.1827178,41.9445468 46.1809437,42.2627556 46.1623714,42.6113706 C46.1374908,43.0783974 46.0832077,43.4476843 46.0022431,43.6912625 C45.9720249,43.7821725 45.9442571,43.8371504 45.9312911,43.8531267 C45.9616049,43.815775 46.0283408,43.7712447 46.115601,43.7514073 C43.3261552,44.3855489 35.1692446,44.2754163 31.5384583,43.7373309 C31.6203283,43.7494641 31.7641919,43.8202799 31.8979945,44.0295152 C32.0586885,44.2808024 32.0519922,44.5281711 31.9777772,44.7056982 C32.0019569,44.6931747 32.0342694,44.6619105 32.0421412,44.6551723 L32.1216283,44.5791731 C36.189417,40.2372423 46.0983575,31.1236182 47.280191,30.9943878 Z M30.7415761,43.1357875 C30.657494,43.2077602 30.5518755,43.3099521 30.442184,43.4405628 C30.3141934,43.5929624 30.2088332,43.7517729 30.1325301,43.9342948 C29.7814487,44.7741043 30.2933874,45.5746546 31.2452591,45.7157227 C35.0996942,46.2869531 43.4862415,46.4001862 46.5589606,45.7016463 C47.7222486,45.437189 48.0704752,44.3895661 48.1595393,42.7177686 C48.1811351,42.312399 48.1830988,41.9601895 48.1753709,41.3750359 C48.1719749,41.1178912 48.1714916,41.0742985 48.1714916,40.9872186 C48.171641,40.8869414 48.171641,40.8869414 48.1723741,40.7865328 C48.1813224,39.759965 48.2147667,39.2568135 48.409542,36.8220632 C48.6221879,34.1639252 48.6959989,32.4749907 48.6352614,30.3011451 C48.6170735,29.6501842 48.2125179,29.1633997 47.6378806,29.0249851 C47.4262676,28.9740132 47.2323687,28.9759842 47.0484022,29.0057579 C46.9618461,29.021748 46.9618461,29.021748 46.9127499,29.0343666 L47.1714916,30.0003132 L47.0627921,29.0062385 C45.1175709,29.2189433 35.386552,38.1689263 30.6620891,43.2117867 L30.7415761,43.1357875 Z" id="Path-4"></path>
                    <polygon id="Line" points="9.81495941 54.074823 9.81495941 53.574823 8.81495941 53.574823 8.81495941 54.074823 8.81495941 57.8731899 8.81495941 58.3731899 9.81495941 58.3731899 9.81495941 57.8731899"></polygon>
                    <polygon id="Line-Copy-6" points="14.9318575 54.074823 14.9318575 53.574823 13.9318575 53.574823 13.9318575 54.074823 13.9318575 57.8731899 13.9318575 58.3731899 14.9318575 58.3731899 14.9318575 57.8731899"></polygon>
                    <polygon id="Line-Copy-9" points="30.2825518 54.074823 30.2825518 53.574823 29.2825518 53.574823 29.2825518 54.074823 29.2825518 57.8731899 29.2825518 58.3731899 30.2825518 58.3731899 30.2825518 57.8731899"></polygon>
                    <polygon id="Line-Copy-12" points="45.6332461 54.074823 45.6332461 53.574823 44.6332461 53.574823 44.6332461 54.074823 44.6332461 57.8731899 44.6332461 58.3731899 45.6332461 58.3731899 45.6332461 57.8731899"></polygon>
                    <polygon id="Line-Copy-7" points="20.0487556 54.074823 20.0487556 53.574823 19.0487556 53.574823 19.0487556 54.074823 19.0487556 57.8731899 19.0487556 58.3731899 20.0487556 58.3731899 20.0487556 57.8731899"></polygon>
                    <polygon id="Line-Copy-10" points="35.3994499 54.074823 35.3994499 53.574823 34.3994499 53.574823 34.3994499 54.074823 34.3994499 57.8731899 34.3994499 58.3731899 35.3994499 58.3731899 35.3994499 57.8731899"></polygon>
                    <polygon id="Line-Copy-13" points="50.7501442 54.074823 50.7501442 53.574823 49.7501442 53.574823 49.7501442 54.074823 49.7501442 57.8731899 49.7501442 58.3731899 50.7501442 58.3731899 50.7501442 57.8731899"></polygon>
                    <polygon id="Line-Copy-8" points="25.1656537 54.074823 25.1656537 53.574823 24.1656537 53.574823 24.1656537 54.074823 24.1656537 57.8731899 24.1656537 58.3731899 25.1656537 58.3731899 25.1656537 57.8731899"></polygon>
                    <polygon id="Line-Copy-11" points="40.516348 54.074823 40.516348 53.574823 39.516348 53.574823 39.516348 54.074823 39.516348 57.8731899 39.516348 58.3731899 40.516348 58.3731899 40.516348 57.8731899"></polygon>
                    <polygon id="Line-Copy-14" points="55.8670423 54.074823 55.8670423 53.574823 54.8670423 53.574823 54.8670423 54.074823 54.8670423 57.8731899 54.8670423 58.3731899 55.8670423 58.3731899 55.8670423 57.8731899"></polygon>
                </g>
                <path d="M137.096039,45.7041788 C136.843299,46.0608832 136.590373,46.4225925 136.250627,46.9119209 C136.043467,47.2104877 136.043467,47.2104877 135.838402,47.5061985 C135.674894,47.7418885 135.551759,47.919027 135.43206,48.0905954 C134.786931,49.0152761 134.313037,49.6732058 133.8509,50.2763107 C133.462326,50.783414 133.099874,51.226656 132.750011,51.619628 C131.733365,52.7615416 130.466885,53.0833486 129.904306,52.6627318 C129.351739,52.2496001 129.520582,50.9820659 131.027883,49.0938459 C131.07038,49.0406096 134.198674,44.7647423 135.627032,42.8706632 C135.774342,42.6753217 135.919404,42.4836246 136.062212,42.2956023 C137.332043,40.6237351 138.398282,39.2754789 139.218406,38.3182628 C139.670682,37.7903847 140.039077,37.392508 140.308286,37.1416891 C140.426999,37.0310862 140.517896,36.9574245 140.566348,36.9271868 C140.452875,36.9980021 140.298138,37.0446638 140.00423,36.9294386 C143.634999,38.3528601 143.678331,41.7331815 140.72245,46.8576677 C138.524935,50.6674064 134.713023,55.1259073 131.719243,57.8720087 C128.269214,61.0366132 123.173744,58.0892127 124.769837,54.0869862 C124.938113,53.6650323 125.129659,53.2299608 125.343727,52.7818818 C126.000592,51.406954 126.849455,49.9460028 127.899964,48.3350499 C128.596594,47.2667692 131.565498,43.0496402 131.902268,42.4168403 C132.135787,41.9780533 131.969384,41.433042 131.530597,41.1995234 C131.09181,40.9660048 130.546799,41.1324077 130.31328,41.5711947 C130.038646,42.0872395 127.144831,46.1977093 126.392217,47.3518417 C125.301813,49.0239732 124.415086,50.5500905 123.719559,52.0059436 C123.488882,52.48879 123.28139,52.9600812 123.097889,53.420211 C120.750517,59.3062808 128.151414,63.5872227 132.935982,59.1984881 C136.054557,56.3379158 139.981243,51.7451728 142.281657,47.7570418 C145.708563,41.8159581 145.649511,37.209251 140.661223,35.2536226 C139.592344,34.8345746 138.503443,36.105495 134.628795,41.2068807 C134.484716,41.3965766 134.338409,41.5899179 134.189877,41.7868802 C132.741339,43.7077191 129.635608,47.9527456 129.62113,47.9708832 C127.564292,50.547517 127.24773,52.923994 128.826468,54.1043504 C130.245022,55.1649447 132.517765,54.5874508 134.094406,52.8165425 C134.475956,52.3879788 134.865813,51.9112228 135.279671,51.3711239 C135.761423,50.7424201 136.249113,50.065335 136.908286,49.1205257 C137.029059,48.947418 137.153018,48.7690943 137.317355,48.5322086 C137.522733,48.2360473 137.522733,48.2360473 137.729186,47.9384997 C138.065947,47.4534698 138.315924,47.095978 138.564738,46.7448145 C139.198818,45.8499067 139.746333,45.1102582 140.288473,44.4253296 C140.596964,44.0355884 140.531097,43.4695593 140.141356,43.1610683 C139.751615,42.8525772 139.185586,42.9184435 138.877095,43.3081847 C138.31264,44.0213058 137.747098,44.7853071 137.096039,45.7041788 Z" id="Path-3-Copy-2" fill="#979797" opacity="0.300000012"></path>
                <g id="Group-5" opacity="0.3" transform="translate(51.376329, 52.775322) rotate(-5.000000) translate(-51.376329, -52.775322) translate(4.876329, 4.775322)" fill="#979797">
                    <path d="M32.1809754,68.6935572 C28.7474729,61.8056357 27.4252654,58.6978468 26.5150854,54.6174937 C23.9950555,43.3201549 26.799965,35.7081227 33.6307319,31.3302599 C38.9561251,27.9171965 46.6331867,26.7266606 53.157798,27.6446313 C60.8735044,28.7301814 69.3219928,37.2918611 69.3219928,47.2751783 C69.3219928,52.0110873 66.4650665,58.1911944 61.6897511,64.7720283 C58.0606935,69.773211 53.4271479,74.718612 51.2568442,76.2145731 C50.0323833,77.0585775 48.8345589,77.4780905 47.5237813,77.5759639 C46.1272858,77.6802376 45.1946469,77.5315842 42.070701,76.8351465 C39.8070869,76.3305072 38.452882,76.1044941 36.8295702,76.0387469 L37.1666019,76.1119183 L34.9841939,75.2222299 L35.5268754,75.7567483 C34.6767904,73.7586618 33.9248312,72.1918923 32.1809754,68.6935572 Z M33.8477676,76.9187554 L34.2291931,77.0742487 L36.4116011,77.9639371 L36.5737121,78.0300239 L36.7486328,78.0371085 C38.2222719,78.0967937 39.4803497,78.3067634 41.6355138,78.7872255 C44.9723047,79.5311137 46.0016712,79.6951846 47.672703,79.5704117 C49.3357541,79.4462348 50.874157,78.9074412 52.3918987,77.8612823 C54.7790686,76.2158383 59.5576445,71.1156459 63.3084796,65.9466423 C68.3110189,59.0526725 71.3219928,52.5393294 71.3219928,47.2751783 C71.3219928,36.2370177 62.0903443,26.8816852 53.4364408,25.6641368 C46.4728315,24.684402 38.3213714,25.9485062 32.5515454,29.6464082 C24.9870945,34.4944917 21.8663671,42.9635985 24.5630599,55.0529204 C25.5205183,59.3452238 26.8850133,62.5524074 30.3910352,69.5858095 C32.1169415,73.0481363 32.8574076,74.5909589 33.6865116,76.5397303 L33.8477676,76.9187554 Z" id="Path-14"></path>
                    <path d="M31.5582116,76.5379457 C31.5161583,77.8073248 31.4312435,78.9711681 31.2505546,81.0021842 C30.750128,86.6271804 30.7337893,88.3442282 31.540541,90.133496 C34.4769069,96.6459645 44.5315396,97.541173 49.623652,92.3046271 C50.047167,91.8690994 50.4023247,91.4365562 50.6995986,90.9941944 C51.6639166,89.55923 51.956767,88.3367095 52.2056871,85.5934316 C52.5304187,82.0146571 52.6711806,80.8889766 53.2294185,78.3616556 C53.3485367,77.8223697 53.0079235,77.2886277 52.4686376,77.1695096 C51.9293516,77.0503914 51.3956097,77.3910046 51.2764915,77.9302905 C50.6943923,80.5656385 50.5460157,81.7522149 50.2138701,85.4126977 C49.9933715,87.84275 49.7638363,88.8009575 49.0396072,89.8786548 C48.8115503,90.2180175 48.5322999,90.5581139 48.1898026,90.9103259 C44.0243093,95.1939699 35.6811959,94.4511456 33.3637806,89.311427 C32.769052,87.9923982 32.7849191,86.3249037 33.2426865,81.1794138 C33.4264842,79.1134537 33.5134922,77.9209216 33.557115,76.6041674 C33.6071334,75.0943628 33.5760546,73.7418076 33.4469772,72.4790302 C33.390817,71.9296082 32.8998956,71.5297407 32.3504736,71.5859009 C31.8010517,71.6420612 31.4011841,72.1329826 31.4573444,72.6824045 C31.5763814,73.8469564 31.6054504,75.112044 31.5582116,76.5379457 Z" id="Path-15"></path>
                    <path d="M43.3907268,89.5956749 C43.7611807,89.5214675 44.1315138,89.4234452 44.6172027,89.2772555 C44.7204833,89.2461686 45.5887565,88.9773165 45.8612012,88.8970807 C47.5947065,88.3865585 49.1233245,88.1377383 51.2414912,88.1377383 L51.2414912,86.1377383 C48.9184622,86.1377383 47.2031251,86.4169516 45.2961884,86.9785499 C45.0074987,87.0635699 44.1313225,87.334869 44.0407596,87.362128 C43.6103238,87.4916869 43.2954637,87.5750261 42.9979007,87.6346324 C40.8445262,88.0659855 38.5811771,87.1163802 32.9272985,82.9099116 L31.7334722,84.5145233 C37.8067987,89.0330599 40.5189034,90.170944 43.3907268,89.5956749 Z" id="Path-16"></path>
                    <path d="M43.3907268,84.5828133 C43.7611807,84.5086058 44.1315138,84.4105836 44.6172027,84.2643938 C44.7204833,84.2333069 45.5887565,83.9644548 45.8612012,83.8842191 C47.5947065,83.3736968 49.1233245,83.1248766 51.2414912,83.1248766 L51.2414912,81.1248766 C48.9184622,81.1248766 47.2031251,81.4040899 45.2961884,81.9656883 C45.0074987,82.0507082 44.1313225,82.3220074 44.0407596,82.3492663 C43.6103238,82.4788252 43.2954637,82.5621645 42.9979007,82.6217708 C40.8445262,83.0531238 38.5811771,82.1035186 32.9272985,77.8970499 L31.7334722,79.5016616 C37.8067987,84.0201983 40.5189034,85.1580823 43.3907268,84.5828133 Z" id="Path-16-Copy"></path>
                    <path d="M24.5001208,17.8942983 C26.9673801,20.7552971 26.9673801,20.7552971 29.4346394,23.6162958 C29.7953219,24.0345381 30.4267652,24.0811995 30.8450075,23.720517 C31.2632497,23.3598345 31.3099111,22.7283912 30.9492287,22.310149 C28.4819693,19.4491502 28.4819693,19.4491502 26.01471,16.5881515 L21.0801913,10.8661541 C20.7195088,10.4479118 20.0880656,10.4012504 19.6698233,10.7619329 C19.251581,11.1226153 19.2049196,11.7540586 19.5656021,12.1723009 C22.0328614,15.0332996 22.0328614,15.0332996 24.5001208,17.8942983 Z" id="Path-17"></path>
                    <path d="M52.5270343,16.3753467 L52.5270343,11.7259697 L52.5270343,10.175403 L52.5270343,6.14625268 L52.5270343,4.2855727 L52.5270343,3.66650751 L52.5270343,3.35639418 L52.5270343,2.63279641 L52.5270343,2.32268308 L52.5270343,2.11594086 L52.5270343,1.80582753 C52.5270343,1.25354278 52.079319,0.805827533 51.5270343,0.805827533 C50.9747495,0.805827533 50.5270343,1.25354278 50.5270343,1.80582753 L50.5270343,2.11594086 L50.5270343,2.32268308 L50.5270343,2.63279641 L50.5270343,3.35639418 L50.5270343,3.66650751 L50.5270343,4.2855727 L50.5270343,6.14625268 L50.5270343,10.175403 L50.5270343,11.7259697 L50.5270343,16.3753467 L50.5270343,19.1396528 C50.5270343,19.6919375 50.9747495,20.1396528 51.5270343,20.1396528 C52.079319,20.1396528 52.5270343,19.6919375 52.5270343,19.1396528 L52.5270343,16.3753467 Z" id="Path-18"></path>
                    <path d="M78.7544033,27.2704658 C82.0544389,25.1359685 82.0544389,25.1359685 85.3544745,23.0014712 C85.8182088,22.701523 85.9509838,22.082436 85.6510356,21.6187017 C85.3510874,21.1549674 84.7320004,21.0221924 84.2682661,21.3221406 C80.9682305,23.4566379 80.9682305,23.4566379 77.6681949,25.5911352 C74.3681593,27.7256325 74.3681593,27.7256325 71.0681237,29.8601297 C70.6043894,30.1600779 70.4716145,30.7791649 70.7715627,31.2428992 C71.0715109,31.7066336 71.6905979,31.8394085 72.1543322,31.5394603 C75.4543678,29.404963 75.4543678,29.404963 78.7544033,27.2704658 Z" id="Path-19"></path>
                    <path d="M84.6306796,55.6787454 C87.9019687,56.040254 87.9019687,56.040254 91.1732578,56.4017625 C91.7222008,56.4624259 92.2163844,56.0665971 92.2770478,55.5176541 C92.3377113,54.9687111 91.9418825,54.4745275 91.3929395,54.4138641 C88.1216504,54.0523556 88.1216504,54.0523556 84.8503612,53.6908471 C81.5790721,53.3293385 81.5790721,53.3293385 78.307783,52.96783 C77.75884,52.9071666 77.2646564,53.3029954 77.203993,53.8519384 C77.1433296,54.4008814 77.5391584,54.895065 78.0881014,54.9557284 C81.3593905,55.3172369 81.3593905,55.3172369 84.6306796,55.6787454 Z" id="Path-20"></path>
                    <path d="M8.47763509,43.5858289 C9.68963232,43.8441599 9.68963232,43.8441599 10.9016295,44.1024909 C13.325624,44.6191528 13.325624,44.6191528 15.7496185,45.1358148 C16.2897698,45.2509453 16.8209806,44.9063978 16.9361111,44.3662465 C17.0512415,43.8260953 16.7066941,43.2948844 16.1665428,43.1797539 C13.7425483,42.663092 13.7425483,42.663092 11.3185539,42.14643 C10.1065566,41.888099 10.1065566,41.888099 8.89455942,41.629768 L1.62257604,40.0797821 C1.08242475,39.9646516 0.55121392,40.3091991 0.436083446,40.8493504 C0.320952972,41.3895017 0.665500421,41.9207125 1.20565171,42.035843 C4.8416434,42.8108359 4.8416434,42.8108359 8.47763509,43.5858289 Z" id="Path-21"></path>
                    <path d="M41.1219437,70.1613151 C40.9293929,64.6096914 41.062667,62.2135866 42.0254588,59.4396468 L42.1692328,59.0254134 L41.9619543,58.6390251 L37.3125773,49.9721125 L37.3760817,50.7727342 C40.2737212,42.4242234 53.4529028,43.3948479 56.6534724,52.8209981 C56.6485231,52.8064215 56.4689648,53.0091495 55.6652651,53.4251377 C54.9905492,53.7743651 51.5860221,55.1727793 50.9341138,55.469848 C47.8177334,56.8899544 45.7986543,58.3749376 44.74573,60.4653588 C43.7647574,62.4129309 43.4265122,64.9833261 43.5551326,68.1636665 C43.6210661,69.7939739 43.7975547,71.4475638 44.0944725,73.5341016 C44.1589695,73.9873431 44.4127904,75.6969009 44.4658266,76.0763592 C44.5773096,76.8739878 44.6323916,77.3913212 44.6390214,77.734693 L46.6386487,77.6960843 C46.6300236,77.2493708 46.5686466,76.6729145 46.4465731,75.7995141 C46.3920612,75.4094972 46.1377466,73.6966139 46.0745252,73.2523368 C45.7862763,71.2267186 45.6161988,69.6331964 45.5534991,68.0828479 C45.4373856,65.2117623 45.7355113,62.9462436 46.5319401,61.3650551 C47.326483,59.787611 49.0275482,58.5365191 51.7634471,57.2897948 C52.3442376,57.0251338 55.8163588,55.5989552 56.5846017,55.2013191 C58.188952,54.3709208 58.9862368,53.4707566 58.5472824,52.1779709 C54.7634417,41.0340014 39.0411005,39.8760775 35.4866539,50.1169429 L35.3428798,50.5311763 L35.5501583,50.9175645 L40.1995353,59.5844772 L40.1360309,58.7838555 C39.0643845,61.8714207 38.9220023,64.4312788 39.1231455,70.2306408 C39.2205196,73.0381302 39.2358541,74.2740629 39.1519481,75.7825906 L41.1488615,75.8936612 C41.2372407,74.3047121 41.2214166,73.0293186 41.1219437,70.1613151 Z" id="Path-22"></path>
                </g>
                <path d="M197.60854,99.9992135 C197.708135,100.595155 198.146009,100.83044 198.602772,100.802962 C198.630246,100.808114 198.656003,100.816701 198.685195,100.818419 C202.02334,101.149879 205.395829,100.897419 208.749429,100.835593 C208.663571,104.55207 209.058517,108.268547 208.85761,111.986741 C208.83357,112.419529 209.020739,112.718358 209.293767,112.8901 C209.46033,113.182059 209.767701,113.382996 210.222746,113.352083 C212.95302,113.159733 215.715919,113.571912 218.44791,113.59939 C219.239517,113.607977 219.593251,112.93647 219.514262,112.328506 C219.53315,112.225462 219.543453,112.11383 219.526282,111.986741 C219.122751,108.735683 219.605271,105.462298 219.740926,102.200934 C222.859276,102.254174 225.951868,102.42248 229.078804,102.18376 C229.265974,102.170021 229.429103,102.116781 229.568193,102.039498 C229.916775,101.884931 230.189802,101.563775 230.194954,101.065726 C230.231014,98.2474544 230.667171,95.4515095 230.692928,92.6298035 C230.692928,92.5662592 230.684342,92.5095847 230.675757,92.4529101 C230.675757,92.4288664 230.672322,92.4048226 230.670605,92.3807789 C230.668888,92.3790615 230.668888,92.3756266 230.668888,92.3739092 C230.624242,91.9909266 230.380406,91.6508793 229.872129,91.5529868 C226.75893,90.9570453 223.607955,91.3743761 220.48617,91.0274591 C220.362535,86.9297168 220.695663,82.8319744 220.405464,78.7325146 C220.39001,78.5401646 220.336778,78.3752932 220.256072,78.2344655 C220.099811,77.8892659 219.78042,77.6213498 219.289315,77.6161976 C216.425103,77.5835668 213.550589,77.1250181 210.693246,77.4839569 C210.427088,77.5183052 210.210726,77.626502 210.042445,77.7776342 C209.79861,77.9545275 209.614874,78.2293133 209.577097,78.6019914 C209.18902,82.4592962 209.247403,86.4797551 209.42427,90.374843 C205.888652,90.2906898 202.337579,89.969534 198.807113,90.1481447 C198.594186,90.1601666 198.415602,90.2219934 198.267927,90.3130162 C197.764801,90.3696907 197.326927,90.7200426 197.381876,91.3760935 C197.618843,94.2561916 197.120868,97.1311374 197.60854,99.9992135 L197.60854,99.9992135 Z M199.663972,92.3533003 C203.302619,92.2485382 206.960156,92.6057597 210.593651,92.6298035 C210.840921,92.6315209 211.043546,92.5628244 211.206675,92.4546275 C211.514045,92.2931909 211.733841,91.9789047 211.711518,91.5134864 C211.510611,87.6080941 211.407582,83.5464173 211.723538,79.6238509 C213.887151,79.4847406 216.05935,79.7303304 218.228114,79.8196357 C218.413567,83.8847473 218.083873,87.946424 218.28478,92.0098181 C218.288214,92.0458838 218.2968,92.0785146 218.301952,92.1111454 C218.277911,92.5628244 218.513161,92.9938946 219.105579,93.0866347 C222.196455,93.572662 225.338845,93.158766 228.421135,93.5778143 C228.340428,95.7280127 228.101744,97.8661892 228.007301,100.01467 C224.883799,100.16752 221.787772,99.9734524 218.657402,99.951126 C218.26074,99.9476912 217.97741,100.119432 217.798826,100.361587 C217.645999,100.536763 217.544687,100.770331 217.541253,101.065726 C217.501758,104.486808 216.931663,107.918195 217.233882,111.33069 C215.200773,111.241385 213.153927,111.026709 211.120817,111.078231 C211.232432,107.286188 210.818598,103.495862 211.019505,99.7038188 C211.043546,99.2263786 210.813447,98.910375 210.494057,98.7506558 C210.334361,98.6493286 210.140323,98.5857844 209.901639,98.5857844 C206.498241,98.5960888 203.06737,98.8880487 199.665689,98.6613504 C199.442459,96.5729788 199.71377,94.4554112 199.663972,92.3533003 L199.663972,92.3533003 Z" id="Fill-43-Copy-2" fill-opacity="0.3" fill="#9A9A9A" transform="translate(214.035066, 95.473447) rotate(-23.000000) translate(-214.035066, -95.473447) "></path>
            </g>
        </g>
    </g>
</svg>