<?xml version="1.0" encoding="UTF-8" standalone="no"?>
<svg width="60px" height="60px" viewBox="0 0 60 60" version="1.1" xmlns="http://www.w3.org/2000/svg" xmlns:xlink="http://www.w3.org/1999/xlink">
    <!-- Generator: Sketch 42 (36781) - http://www.bohemiancoding.com/sketch -->
    <title>Group 33</title>
    <desc>Created with Sketch.</desc>
    <defs>
        <path d="M30,60 C46.5685425,60 60,46.5685425 60,30 C60,13.4314575 46.5685425,0 30,0 C13.4314575,0 0,13.4314575 0,30 C0,46.5685425 13.4314575,60 30,60 Z" id="path-1"></path>
        <mask id="mask-2" maskContentUnits="userSpaceOnUse" maskUnits="objectBoundingBox" x="0" y="0" width="60" height="60" fill="white">
            <use xlink:href="#path-1"></use>
        </mask>
    </defs>
    <g id="Page-1" stroke="none" stroke-width="1" fill="none" fill-rule="evenodd">
        <g id="CT-HP-v1-Copy-5" transform="translate(-898.000000, -3756.000000)" stroke="#EB7100">
            <g id="Group-32" transform="translate(897.000000, 3756.000000)">
                <g id="Group-33" transform="translate(1.000000, 0.000000)">
                    <use id="Oval-Copy-29" mask="url(#mask-2)" stroke-width="4" fill="#FFFFFF" xlink:href="#path-1"></use>
                    <g id="Group-4" transform="translate(17.000000, 18.000000)" stroke-width="2.5" stroke-linecap="round">
                        <path d="M0,2.48279807 C0,1.93415968 0.400885395,1.29415358 0.941340029,1.16864994 C0.941340029,1.16864994 0.939029948,0.605611334 5.28442383,1.48940039 C9.62981771,2.37318944 13,4.48940039 13,4.48940039 L13,21.4960027 C13,22.0446411 12.5797756,22.359015 12.0482652,22.197529 C12.0482652,22.197529 9.021875,21.2316901 5.76806641,20.5346686 C2.51425781,19.8376471 0.986372313,19.6394224 0.986372313,19.6394224 C0.441613927,19.5565675 0,19.0444541 0,18.4960027 L0,2.48279807 Z" id="Rectangle-29"></path>
                        <path d="M13,2.48279807 C13,1.93415968 13.4008854,1.29415358 13.94134,1.16864994 C13.94134,1.16864994 13.9390299,0.605611334 18.2844238,1.48940039 C22.6298177,2.37318944 26,4.48940039 26,4.48940039 L26,21.4960027 C26,22.0446411 25.5781717,22.3588915 25.0416292,22.195534 C25.0416292,22.195534 21.2738281,21.0061042 18.0200195,20.3090827 C14.7662109,19.6120612 13.9908603,19.59766 13.9908603,19.59766 C13.4436233,19.5378699 13,19.0444541 13,18.4960027 L13,2.48279807 Z" id="Rectangle-29-Copy" transform="translate(19.500000, 11.615325) scale(-1, 1) translate(-19.500000, -11.615325) "></path>
                    </g>
                    <path d="M13,22 C13,22 13,22.4491035 13,22.990752 L13,39.9324829 C13,40.4796601 13.4505426,40.9998783 13.9849614,41.0918494 C13.9849614,41.0918494 20.828394,42.2405822 23.2211914,42.9171314 C25.600331,43.589819 29.1849171,44.8698811 29.1849171,44.8698811 C29.710313,45.0546777 30.5628881,45.0512962 31.0828529,44.8660168 C31.0828529,44.8660168 34.4056196,43.6612636 36.8713379,42.9171314 C39.148022,42.2300481 46.1112522,41.0878683 46.1112522,41.0878683 C46.6533314,40.9969438 47.0927734,40.4741314 47.0927734,39.9324829 L47.0927734,22" id="Path-832" stroke-width="2" stroke-linecap="round"></path>
                </g>
            </g>
        </g>
    </g>
</svg>