<?xml version="1.0" encoding="UTF-8" standalone="no"?>
<svg width="60px" height="60px" viewBox="0 0 60 60" version="1.1" xmlns="http://www.w3.org/2000/svg" xmlns:xlink="http://www.w3.org/1999/xlink">
    <!-- Generator: Sketch 42 (36781) - http://www.bohemiancoding.com/sketch -->
    <title>Group 32</title>
    <desc>Created with Sketch.</desc>
    <defs>
        <circle id="path-1" cx="30" cy="30" r="30"></circle>
        <mask id="mask-2" maskContentUnits="userSpaceOnUse" maskUnits="objectBoundingBox" x="0" y="0" width="60" height="60" fill="white">
            <use xlink:href="#path-1"></use>
        </mask>
    </defs>
    <g id="Page-1" stroke="none" stroke-width="1" fill="none" fill-rule="evenodd">
        <g id="CT-HP-v1-Copy-5" transform="translate(-706.000000, -3754.000000)" stroke="#EB7100">
            <g id="TUTORS" transform="translate(-47.000000, 1557.000000)">
                <g id="Group-26" transform="translate(48.000000, 2037.000000)">
                    <g id="Group-52" transform="translate(120.000000, 160.000000)">
                        <g id="Group-32" transform="translate(585.000000, 0.000000)">
                            <g id="Group-48" stroke-width="4" fill="#FFFFFF">
                                <use id="Oval-Copy-30" mask="url(#mask-2)" xlink:href="#path-1"></use>
                            </g>
                            <g id="Group-68" transform="translate(11.000000, 16.000000)">
                                <g id="Group-18" transform="translate(18.000000, 12.000000)">
                                    <path d="M9.9999964,14.6593601 C11.9742032,14.6593602 12.7054234,13.3667583 12.7054234,13.3667583 C12.9846111,13.0278545 12.924533,12.9673392 12.5582555,13.2149604 C12.5582555,13.2149604 11.4693824,14.1635918 9.99999649,14.1635918 C8.53061059,14.1635918 7.52689136,13.2306406 7.52689136,13.2306406 C7.17003033,12.9669125 7.09049871,13.0509689 7.36642211,13.3772935 C7.36642211,13.3772935 8.02578962,14.6593601 9.9999964,14.6593601 Z" id="Oval-368-Copy" stroke-width="2" transform="translate(10.040502, 13.861545) scale(1, -1) translate(-10.040502, -13.861545) "></path>
                                    <path d="M0.415161133,7.1551514 C2.35046387,3.79846194 2.83064328,2.23001745 3.31396493,0.745483428 C4.8924423,1.00584157 7.57193817,1.27309209 10.1673577,1.27309209 C16.0927247,1.27309209 18.9553589,0.161989013 18.9553589,0.161989013 C19.4809032,-0.000770974286 19.8997188,0.324676618 19.8825658,0.863631023 C19.8825658,0.863631023 19.9069422,19.9588753 9.94800108,19.9588757 C4.05346069,19.958876 1.39247711,12.6904557 0.415161133,7.1551514 Z" id="Path-1108-Copy" stroke-width="2.5"></path>
                                    <g id="Group-14" transform="translate(3.636364, 3.848485)" stroke-width="2">
                                        <path d="M10.3529381,2.57966238 C11.0328814,2.57966238 11.6575819,2.20737143 11.6575819,1.83477993 C11.6575819,1.46218843 10.5949245,1.0273521 9.90217379,1.1496337 C9.20942306,1.27191531 8.74036602,2.00059579 8.74036602,2.37318729 C8.74036602,2.74577879 9.67299492,2.57966238 10.3529381,2.57966238 Z" id="Oval-369-Copy-3" transform="translate(10.198974, 1.872586) scale(-1, 1) rotate(-6.000000) translate(-10.198974, -1.872586) "></path>
                                        <path d="M2.75819233,2.72234815 C3.46936982,2.72234815 4.12276697,2.33295544 4.12276697,1.94324836 C4.12276697,1.55354128 3.01129475,1.09873005 2.28672142,1.22662885 C1.56214809,1.35452766 1.07154416,2.11668123 1.07154416,2.50638831 C1.07154416,2.89609538 2.04701485,2.72234815 2.75819233,2.72234815 Z" id="Oval-369-Copy-3" transform="translate(2.597156, 1.982791) rotate(-6.000000) translate(-2.597156, -1.982791) "></path>
                                    </g>
                                    <path d="M10.0553385,8.5805078 L10.0553385,9.71679693" id="Path-1112" stroke-width="2" stroke-linecap="round"></path>
                                </g>
                                <path d="M0.000249366988,0.736716041 C-0.0118172148,0.19607701 0.41565223,-0.108227078 0.930226957,0.0355135114 C0.930226957,0.0355135114 4.86927003,1.39489854 11.683442,1.39489854 C18.497614,1.39489854 21.9401273,0.0747449988 21.9401273,0.0747449988 C22.4613933,-0.0890203993 22.877641,0.219149279 22.8615942,0.771028564 C22.8615942,0.771028564 22.8839641,22.8835492 11.4311819,22.8835497 C-0.0216004052,22.8835502 0.000249366988,0.736716041 0.000249366988,0.736716041 Z" id="Path-1108-Copy" stroke-width="2.5"></path>
                            </g>
                            <path d="M21.8400597,31.9534271 C24.4979373,31.9534271 25.6953396,30.3113108 25.6953396,30.3113108 C26.0681447,29.9325063 26.0285176,29.9043429 25.5873901,30.2067123 C25.5873901,30.2067123 24.5850586,31.3145111 21.8400598,31.3145111 C19.095061,31.3145111 18.0927296,30.2067123 18.0927296,30.2067123 C17.6603057,29.885676 17.6043287,29.9491233 17.9989739,30.3239021 C17.9989739,30.3239021 19.1821821,31.953427 21.8400597,31.9534271 Z" id="Oval-368-Copy" stroke-width="2"></path>
                            <path d="M18.1284323,22.9484147 C19.1038402,22.9484147 20,22.4143473 20,21.8798488 C20,21.3453502 18.6056124,21.0937721 17.6118316,21.2691903 C16.6180509,21.4446085 15.8151281,22.1177188 15.8151281,22.6522173 C15.8151281,23.1867159 17.1530245,22.9484147 18.1284323,22.9484147 Z" id="Oval-369-Copy-3" stroke-width="2" transform="translate(17.907564, 22.107593) scale(-1, 1) rotate(-6.000000) translate(-17.907564, -22.107593) "></path>
                            <path d="M27.1284323,22.9484147 C28.1038402,22.9484147 29,22.4143473 29,21.8798488 C29,21.3453502 27.6056124,21.0937721 26.6118316,21.2691903 C25.6180509,21.4446085 24.8151281,22.1177188 24.8151281,22.6522173 C24.8151281,23.1867159 26.1530245,22.9484147 27.1284323,22.9484147 Z" id="Oval-369-Copy-3" stroke-width="2" transform="translate(26.907564, 22.107593) rotate(-6.000000) translate(-26.907564, -22.107593) "></path>
                        </g>
                    </g>
                </g>
            </g>
        </g>
    </g>
</svg>