<?xml version="1.0" encoding="UTF-8" standalone="no"?>
<svg width="18px" height="15px" viewBox="0 0 18 15" version="1.1" xmlns="http://www.w3.org/2000/svg" xmlns:xlink="http://www.w3.org/1999/xlink">
    <!-- Generator: Sketch 41.2 (35397) - http://www.bohemiancoding.com/sketch -->
    <title>left-quote-mark</title>
    <desc>Created with Sketch.</desc>
    <defs></defs>
    <g id="Page-1" stroke="none" stroke-width="1" fill="none" fill-rule="evenodd">
        <g id="CT-HP-v1-Copy-5" transform="translate(-316.000000, -244.000000)" fill="#EB7100">
            <g id="Section:-Testimonials" transform="translate(313.000000, 125.000000)">
                <g id="testimonials-UI" transform="translate(0.000000, 113.000000)">
                    <g id="textimonials-text">
                        <path d="M11.4719555,8.79714715 L10.5310607,6.43530923 C6.61386614,7.60662723 3.4071431,11.8694566 3.4071431,16.0362764 C3.4071431,18.5133259 4.55925916,20.529529 6.82508742,20.529529 C8.80288665,20.529529 10.0894163,18.9933743 10.0894163,17.2652002 C10.0894163,15.2105932 8.22682862,14.7113429 8.22682862,12.7143418 C8.22682862,10.6213309 10.2430317,9.45001292 11.4719555,8.79714715 Z M20.0168163,6.43530923 C16.1188236,7.60662723 12.9121006,11.8694566 12.9121006,16.0362764 C12.9121006,18.5133259 14.0450147,20.529529 16.3300449,20.529529 C18.2886422,20.529529 19.5943738,18.9933743 19.5943738,17.2652002 C19.5943738,15.2105932 17.7317861,14.7113429 17.7317861,12.7143418 C17.7317861,10.6213309 19.7479892,9.45001292 20.9577111,8.79714715 L20.0168163,6.43530923 Z" id="left-quote-mark"></path>
                    </g>
                </g>
            </g>
        </g>
    </g>
</svg>