<?xml version="1.0" encoding="UTF-8" standalone="no"?>
<svg width="18px" height="15px" viewBox="0 0 18 15" version="1.1" xmlns="http://www.w3.org/2000/svg" xmlns:xlink="http://www.w3.org/1999/xlink">
    <!-- Generator: Sketch 41.2 (35397) - http://www.bohemiancoding.com/sketch -->
    <title>right-quote-mark</title>
    <desc>Created with Sketch.</desc>
    <defs></defs>
    <g id="Page-1" stroke="none" stroke-width="1" fill="none" fill-rule="evenodd">
        <g id="CT-HP-v1-Copy-5" transform="translate(-1049.000000, -244.000000)" fill="#EB7100">
            <g id="Section:-Testimonials" transform="translate(313.000000, 125.000000)">
                <g id="testimonials-UI" transform="translate(0.000000, 113.000000)">
                    <g id="textimonials-text">
                        <path d="M736.397542,18.1676911 L737.357639,20.529529 C741.255632,19.358211 744.462355,15.0953816 744.462355,10.9285619 C744.462355,8.45151234 743.310239,6.43530923 741.04441,6.43530923 C739.085813,6.43530923 737.799283,7.97146398 737.799283,9.69963807 C737.799283,11.754245 739.642669,12.2534953 739.642669,14.2696984 C739.642669,16.3627093 737.626466,17.5340273 736.397542,18.1676911 Z M746.862596,20.529529 C750.760589,19.358211 753.94811,15.0953816 753.94811,10.9285619 C753.94811,8.45151234 752.815196,6.43530923 750.549368,6.43530923 C748.571569,6.43530923 747.265837,7.97146398 747.265837,9.69963807 C747.265837,11.754245 749.128425,12.2534953 749.128425,14.2696984 C749.128425,16.3627093 747.112222,17.5340273 745.9025,18.1676911 L746.862596,20.529529 Z" id="right-quote-mark"></path>
                    </g>
                </g>
            </g>
        </g>
    </g>
</svg>