<?xml version="1.0" encoding="UTF-8" standalone="no"?>
<svg width="62px" height="62px" viewBox="0 0 62 62" version="1.1" xmlns="http://www.w3.org/2000/svg" xmlns:xlink="http://www.w3.org/1999/xlink">
    <!-- Generator: Sketch 42 (36781) - http://www.bohemiancoding.com/sketch -->
    <title>Group 89</title>
    <desc>Created with Sketch.</desc>
    <defs></defs>
    <g id="Page-1" stroke="none" stroke-width="1" fill="none" fill-rule="evenodd">
        <g id="CT-HP-v1-Copy-5" transform="translate(-510.000000, -3755.000000)" stroke="#EB7100">
            <g id="TUTORS" transform="translate(-47.000000, 1557.000000)">
                <g id="Group-26" transform="translate(48.000000, 2037.000000)">
                    <g id="Group-52" transform="translate(120.000000, 160.000000)">
                        <g id="Secondary-Large" transform="translate(194.000000, 0.000000)">
                            <g id="Group-34">
                                <g id="Group-67" transform="translate(196.000000, 2.000000)">
                                    <g id="Group-13">
                                        <g id="Group-31">
                                            <g id="Group-89">
                                                <g id="Group-38" stroke-width="2" stroke-linecap="round">
                                                    <ellipse id="Oval-Copy-18" cx="30" cy="30" rx="30" ry="30"></ellipse>
                                                </g>
                                                <g id="Group-58" transform="translate(10.000000, 9.000000)">
                                                    <circle id="Oval-139" stroke-width="3" cx="20" cy="20" r="2"></circle>
                                                    <path d="M19.6231793,39.6231793 C23.4891726,39.6231793 26.6231793,30.8375827 26.6231793,20 C26.6231793,9.16241731 23.4891726,0.376820669 19.6231793,0.376820669 C15.7571861,0.376820669 12.6231793,9.16241731 12.6231793,20 C12.6231793,30.8375827 15.7571861,39.6231793 19.6231793,39.6231793 Z" id="Oval-140" stroke-width="2" transform="translate(19.623179, 20.000000) rotate(-270.000000) translate(-19.623179, -20.000000) "></path>
                                                    <path d="M19.8737675,40.1173511 C23.7397607,40.1173511 26.8737675,31.3317545 26.8737675,20.4941718 C26.8737675,9.65658912 23.7397607,0.870992473 19.8737675,0.870992473 C16.0077742,0.870992473 12.8737675,9.65658912 12.8737675,20.4941718 C12.8737675,31.3317545 16.0077742,40.1173511 19.8737675,40.1173511 Z" id="Oval-140" stroke-width="2" transform="translate(19.873767, 20.494172) rotate(-330.000000) translate(-19.873767, -20.494172) "></path>
                                                    <path d="M19.8737675,40.1173511 C23.7397607,40.1173511 26.8737675,31.3317545 26.8737675,20.4941718 C26.8737675,9.65658912 23.7397607,0.870992473 19.8737675,0.870992473 C16.0077742,0.870992473 12.8737675,9.65658912 12.8737675,20.4941718 C12.8737675,31.3317545 16.0077742,40.1173511 19.8737675,40.1173511 Z" id="Oval-140" stroke-width="2" transform="translate(19.873767, 20.494172) scale(-1, 1) rotate(-330.000000) translate(-19.873767, -20.494172) "></path>
                                                    <ellipse id="Oval-143" stroke-width="2" fill="#EB7100" cx="31.5" cy="6.5" rx="1.5" ry="1.5"></ellipse>
                                                    <ellipse id="Oval-143-Copy" stroke-width="2" fill="#EB7100" cx="2.5" cy="23.5" rx="1.5" ry="1.5"></ellipse>
                                                </g>
                                            </g>
                                        </g>
                                    </g>
                                </g>
                            </g>
                        </g>
                    </g>
                </g>
            </g>
        </g>
    </g>
</svg>