<?xml version="1.0" encoding="UTF-8" standalone="no"?>
<svg width="100px" height="100px" viewBox="0 0 100 100" version="1.1" xmlns="http://www.w3.org/2000/svg" xmlns:xlink="http://www.w3.org/1999/xlink">
    <!-- Generator: Sketch 42 (36781) - http://www.bohemiancoding.com/sketch -->
    <title>Group 90</title>
    <desc>Created with Sketch.</desc>
    <defs>
        <rect id="path-1" x="1.73210634" y="0" width="36.8691207" height="23.8086897" rx="1.33333333"></rect>
        <mask id="mask-2" maskContentUnits="userSpaceOnUse" maskUnits="objectBoundingBox" x="0" y="0" width="36.8691207" height="23.8086897" fill="white">
            <use xlink:href="#path-1"></use>
        </mask>
    </defs>
    <g id="Page-1" stroke="none" stroke-width="1" fill="none" fill-rule="evenodd">
        <g id="CT-HP-v1-Copy-5" transform="translate(-251.000000, -491.000000)">
            <g id="Group-36" transform="translate(123.000000, 491.000000)">
                <g id="Group-12">
                    <g id="Group-43">
                        <g id="Group-59">
                            <g id="Group-90" transform="translate(128.000000, 0.000000)">
                                <g id="Group-13" fill="#F5F5F5">
                                    <ellipse id="Oval-Copy-2" cx="50" cy="50" rx="50" ry="50"></ellipse>
                                </g>
                                <g id="Group-12" transform="translate(17.000000, 20.000000)">
                                    <g id="Group-2" transform="translate(0.000000, 3.974522)">
                                        <path d="M3.68845579e-16,41.6562834 C1.65137791e-16,42.10675 0.363094559,42.7364977 0.822833376,43.0304323 C0.822833376,43.0304323 5.45527129,47.0267172 20.1588399,47.0267172 C34.8624084,47.0267172 39.5147807,42.8602644 39.5147807,42.8602644 C39.8057718,42.6457907 40.0416667,42.1778226 40.0416667,41.8141508 C40.0416667,41.8141508 40.0416667,40.6133963 40.0416667,34.2880579 C40.0416667,28.3010459 28.8754146,27.1592357 19.6666667,27.1592357 C10.4579188,27.1592357 8.8817842e-16,27.9698358 0,34.2880579 L3.68845579e-16,41.6562834 Z" id="Combined-Shape-Copy-4" fill="#71CFC9"></path>
                                        <polygon id="Triangle-5-Copy" fill="#F3D796" transform="translate(19.787638, 29.974522) scale(1, -1) translate(-19.787638, -29.974522) " points="14 32.3534783 19.7494303 23.5159236 25.5752767 32.4926416 25.0827637 36.433121 14.416097 36.433121"></polygon>
                                        <rect id="Rectangle-313-Copy-2" fill="#F4D896" transform="translate(8.196352, 14.662701) rotate(-8.000000) translate(-8.196352, -14.662701) " x="7.36301833" y="12.0130192" width="1.66666667" height="5.29936306" rx="0.833333333"></rect>
                                        <rect id="Rectangle-313-Copy-3" fill="#F4D896" transform="translate(31.196352, 14.662701) scale(-1, 1) rotate(-8.000000) translate(-31.196352, -14.662701) " x="30.3630183" y="12.0130192" width="1.66666667" height="5.29936306" rx="0.833333333"></rect>
                                        <path d="M31.5378642,7.72251375 C31.7263607,11.3334026 30.6014065,18.2553897 28.7162658,21.2644929 C26.8313007,24.2735962 23.260828,26.725047 19.945848,26.725047 C16.6308679,26.725047 12.8820319,26.0791281 10.0545843,20.0609216 C7.22696096,14.0425401 8.73510871,6.41957194 8.73510871,6.41957194 L24.757839,0 L31.5378642,7.72251375 Z" id="Fill-14-Copy-2" fill="#FFE3AB"></path>
                                        <polygon id="Path-347-Copy-2" fill="#FFFFFF" points="13.9322103 26.8280255 12 27.6000137 15.3622233 40.3882365 19.686849 36.3537147"></polygon>
                                        <polygon id="Path-347-Copy-3" fill="#FFFFFF" transform="translate(23.510091, 33.608131) scale(-1, 1) translate(-23.510091, -33.608131) " points="21.598877 26.8280255 19.6666667 27.6000137 23.02889 40.3882365 27.3535156 36.3537147"></polygon>
                                    </g>
                                    <path d="M20.0103418,0.000508167536 C14.4779524,0.045235722 8.70386222,2.06256488 7.64982766,6.35447194 C6.59579311,10.646379 8.51960099,16.4877007 8.43176478,17.8880163 C8.43176478,17.8880163 9.92498037,11.4115565 12.3843943,10.0987606 C14.8438082,8.78596475 20.3774895,11.1489974 22.661231,10.7989185 C24.9449725,10.4488396 24.5718117,9.97643439 27.691494,10.5015529 C30.8111763,11.0266714 31.3350499,15.6042599 31.3350499,15.6042599 C31.3350499,15.6042599 32.7281647,10.5574376 33.034757,8.37504762 C33.3413492,6.19265763 32.6770096,5.13038482 31.3350499,4.03955829 C29.9930903,2.94873176 28.1810773,2.87854358 28.1810773,2.87854358 C28.1810773,2.87854358 25.5427311,-0.0442193869 20.0103418,0.000508167536 Z" id="Fill-17-Copy" fill="#555555"></path>
                                    <g id="Group-11" transform="translate(29.666667, 25.834395)">
                                        <g id="Group-25">
                                            <use id="Rectangle-308-Copy-2" stroke="#CCCCCC" mask="url(#mask-2)" stroke-width="3.33333333" fill="#FFFFFF" xlink:href="#path-1"></use>
                                            <rect id="Rectangle-309-Copy-2" fill="#555555" x="0" y="23.8086897" width="40.3333333" height="2.35691538" rx="1"></rect>
                                            <path d="M5.56748466,24.8407643 L6.82920524,24.8407643" id="Line-Copy-50" stroke="#FFB70D" stroke-width="0.666666667" stroke-linecap="round"></path>
                                            <path d="M8.78425358,24.8407643 L10.0459742,24.8407643" id="Line-Copy-51" stroke="#FFB70D" stroke-width="0.666666667" stroke-linecap="round"></path>
                                            <path d="M18.6820041,24.8407643 L21.6616215,24.8407643" id="Line-Copy-52" stroke="#CCCCCC" stroke-width="0.666666667" stroke-linecap="round"></path>
                                        </g>
                                        <g id="Group-20-Copy" transform="translate(14.333333, 3.643312)">
                                            <rect id="Rectangle-295-Copy" fill="#3AAFA6" transform="translate(6.666667, 6.624204) scale(-1, 1) translate(-6.666667, -6.624204) " x="0" y="0" width="13.3333333" height="13.2484076" rx="1.33333333"></rect>
                                            <text id="?" font-family="Aspira-Bold, Aspira" font-size="10" font-weight="bold" fill="#FFFFFF">
                                                <tspan x="4.24407441" y="10.3184713">?</tspan>
                                            </text>
                                            <polygon id="Triangle-6-Copy" fill="#3AAFA6" transform="translate(4.500000, 14.472656) scale(-1, 1) rotate(-270.000000) translate(-4.500000, -14.472656) " points="2.26790365 12.9822104 2.26790365 15.9631021 6.73209635 12.9822104"></polygon>
                                        </g>
                                    </g>
                                </g>
                            </g>
                        </g>
                    </g>
                </g>
            </g>
        </g>
    </g>
</svg>