<?xml version="1.0" encoding="UTF-8" standalone="no"?>
<svg width="100px" height="100px" viewBox="0 0 100 100" version="1.1" xmlns="http://www.w3.org/2000/svg" xmlns:xlink="http://www.w3.org/1999/xlink">
    <!-- Generator: Sketch 42 (36781) - http://www.bohemiancoding.com/sketch -->
    <title>Group 42</title>
    <desc>Created with Sketch.</desc>
    <defs>
        <rect id="path-1" x="4.43251021" y="0" width="53.5127169" height="36.9303129" rx="4"></rect>
        <mask id="mask-2" maskContentUnits="userSpaceOnUse" maskUnits="objectBoundingBox" x="0" y="0" width="53.5127169" height="36.9303129" fill="white">
            <use xlink:href="#path-1"></use>
        </mask>
    </defs>
    <g id="Page-1" stroke="none" stroke-width="1" fill="none" fill-rule="evenodd">
        <g id="CT-HP-v1-Copy-5" transform="translate(-645.000000, -496.000000)">
            <g id="Group-53" transform="translate(515.000000, 496.000000)">
                <g id="Group-42" transform="translate(130.000000, 0.000000)">
                    <ellipse id="Oval-Copy-2" fill="#F5F5F5" cx="50" cy="50" rx="50" ry="50"></ellipse>
                    <g id="Group-40" transform="translate(19.000000, 10.000000)">
                        <g id="Group-25-Copy-2" transform="translate(0.000000, 25.687461)">
                            <use id="Rectangle-308-Copy-2" stroke="#CCCCCC" mask="url(#mask-2)" stroke-width="10" fill="#FFFFFF" xlink:href="#path-1"></use>
                            <rect id="Rectangle-309-Copy-2" fill="#555555" x="0" y="36.9303129" width="62.3777374" height="5.71087313" rx="2.85543657"></rect>
                            <path d="M6.03283142,39.8155653 L7.98415228,39.8155653" id="Line-Copy-50" stroke="#EB7C13" stroke-width="3" stroke-linecap="round"></path>
                            <path d="M11.007743,39.8155653 L12.9590638,39.8155653" id="Line-Copy-51" stroke="#EB7C13" stroke-width="3" stroke-linecap="round"></path>
                            <path d="M28.8927557,39.8155653 L33.5008993,39.8155653" id="Line-Copy-52" stroke="#EB7C13" stroke-width="3" stroke-linecap="round"></path>
                        </g>
                        <g id="Group-9" transform="translate(13.403481, 0.000000)">
                            <path d="M1.40146162,23.2481202 C1.71552471,22.2375808 2.6570534,20.8586282 3.52174653,20.1540289 L7.76015912,16.7003378 L4.45529209,21.0803745 C3.78710185,21.9659465 2.38822354,22.946159 1.40146162,23.2481202 L3.24542663,22.6838444 C2.22703288,22.9954853 1.66581502,22.3975282 1.97012315,21.4183767 L1.40146162,23.2481202 Z" id="Rectangle-299-Copy-2" fill="#333333" transform="translate(4.580810, 19.974229) rotate(-45.000000) translate(-4.580810, -19.974229) "></path>
                            <path d="M7.54722493,7.40722798 C7.20382859,5.78947071 8.24894312,4.75463629 9.85732198,5.09079606 L21.9923462,7.62708093 C23.6115739,7.96550818 25.2029842,9.55314255 25.5459914,11.1690663 L28.0935201,23.1706007 C28.4369164,24.788358 27.3918019,25.8231924 25.783423,25.4870326 L10.7165277,22.337971 L7.54722493,7.40722798 Z" id="Rectangle-297-Copy-2" fill="#333333" transform="translate(17.820373, 15.288914) rotate(-45.000000) translate(-17.820373, -15.288914) "></path>
                            <path d="M27.1104022,23.9612972 C27.1104027,22.5345102 26.9263649,31.6517908 29.326033,38.700328 C31.7257011,45.7488651 7.50385489,41.9025466 7.50385489,41.9025466 C7.50385489,41.9025466 5.69909723,45.639373 7.5038549,38.074028 C9.30861258,30.508683 9.26246857,22.9942262 9.26246857,22.9942262 L21.8072462,18.3541476 L27.1104022,23.9612972 Z" id="Fill-22-Copy-2" fill="#555555"></path>
                            <path d="M4.02104423,50.7163544 C4.02104423,50.7163544 8.27769651,52.3963544 18.4549176,52.3963544 C28.6321386,52.3963544 31.4202227,51.2249689 31.4202227,51.2249689 C32.4815599,50.9440689 33.3419437,49.8235829 33.3419437,48.719628 L33.3419437,43.9507863 C33.3419437,37.8013167 24.6682218,37.2402995 18.4549176,37.2402995 C12.2416134,37.2402995 4.02104423,37.8013167 4.02104423,43.9507863 L4.02104423,50.7163544 Z" id="Oval-85-Copy-2" fill="#EB7C13"></path>
                            <path d="M15.1050945,36.6360798 L15.1050945,31.9202567 L21.2706957,31.9202567 L21.2706957,36.6360798 C21.2706957,37.2808232 23.3136793,39.4761202 23.3136793,39.4761202 C23.3136793,39.4761202 20.7691123,44.2405198 18.2245452,44.2405198 C15.6799782,44.2405198 13.1354111,39.4761202 13.1354111,39.4761202 C13.1354111,39.4761202 15.1050945,37.3029901 15.1050945,36.6360798 Z" id="Rectangle-312-Copy" fill="#F4D896"></path>
                            <path d="M25.7770302,24.420248 C25.8942711,26.5082834 25.3263776,28.7155115 24.1539685,30.455541 C22.9815594,32.1955705 21.5563575,33.961451 18.9546749,33.961451 C16.3529923,33.961451 14.1701799,33.7004052 12.4115662,30.2203463 C10.6529525,26.7402873 11.0234034,22.2727144 11.0234034,22.2727144 L21.5563574,18.6201497 L25.7770302,24.420248 Z" id="Fill-24-Copy-2" fill="#FFF5C6"></path>
                            <path d="M8.6670946,36.3927018 C8.6670946,36.3927018 8.43261283,36.3962169 8.66709465,32.9161579 C8.90157647,29.436099 8.66709465,27.0000577 8.198131,25.2600282 C7.72916735,23.5199987 6.90848097,18.1839083 10.5429492,14.9358533 C14.1774175,11.6877983 18.867054,10.9917865 20.7429086,12.38381 C22.6187632,13.7758336 22.6187632,15.6318651 22.1497996,17.3718946 C21.6808359,19.111924 20.8601495,20.9679555 17.577404,23.1719928 C14.2946584,25.3760302 9.72226286,24.5640164 9.72226286,24.5640164 L9.72226285,35.677821 L8.6670946,36.3927018 Z" id="Fill-26-Copy-2" fill="#555555"></path>
                            <path d="M21.4328355,13.6553342 C21.6473864,13.1032808 24.9822342,15.2055026 26.3891251,17.4095399 C27.7960161,19.6135773 28.8511843,22.7456304 27.913257,24.3696579 C26.9753297,25.9936854 21.7090749,21.6183606 21.0056294,20.342339 C20.302184,19.0663174 19.9785802,18.0562399 21.1509893,15.0401888" id="Fill-28-Copy-2" fill="#555555"></path>
                            <path d="M8.31015807,13.8321112 C8.31015807,13.8321112 14.7792573,11.1720898 18.0138069,11.1720898 C21.3022846,11.1720898 27.550174,13.8321112 27.550174,13.8321112 L27.550174,19.152154 C27.550174,19.152154 23.9016523,16.7085191 18.0138069,16.7085191 C12.1259615,16.7085191 8.31015807,19.152154 8.31015807,19.152154 L8.31015807,13.8321112 Z" id="Rectangle-298-Copy-2" fill="#333333"></path>
                            <path d="M15.2713945,36.7307651 C15.2713945,36.7307651 15.0053538,38.43627 12.5916801,41.2098099 C10.1780064,43.9833498 5.09332269,43.5014807 5.09332269,43.5014807 C5.09332269,43.5014807 6.9520085,40.3214043 7.55699764,38.9129438 C8.16198678,37.5044832 11.7343285,36.4422931 11.7343285,36.4422931 L15.2713945,36.7307651 Z" id="Path-343-Copy-3" fill="#555555"></path>
                            <path d="M29.8216975,36.7082952 C29.8216975,36.7082952 29.9853797,38.5205646 28.1350056,40.9997877 C26.2846315,43.4790108 21.4455692,43.1878112 21.4455692,43.1878112 C21.4455692,43.1878112 22.8236146,41.081095 23.9584601,39.7243282 C25.0933056,38.3675615 24.734511,36.7082952 24.734511,36.7082952 L29.8216975,36.7082952 Z" id="Path-343-Copy-4" fill="#555555" transform="translate(25.635483, 39.953322) scale(-1, 1) translate(-25.635483, -39.953322) "></path>
                            <path d="M31.0607343,37.7723037 C31.0607343,37.7723037 30.7604729,38.6143329 29.6292843,40.1299555 C28.4980957,41.6455782 25.4666134,40.9123759 25.4666134,40.9123759 C25.4666134,40.9123759 26.1076992,40.3638003 26.801464,39.5343685 C27.4952287,38.7049367 27.4938899,37.7723037 27.4938899,37.7723037 L31.0607343,37.7723037 Z" id="Path-343-Copy-5" fill="#555555" transform="translate(28.263674, 39.430990) scale(-1, 1) translate(-28.263674, -39.430990) "></path>
                        </g>
                    </g>
                </g>
            </g>
        </g>
    </g>
</svg>